<?xml version="1.0" encoding="UTF-8"?>
<svg version="1.1" xmlns="http://www.w3.org/2000/svg" width="128" height="128">
<path d="M0 0 C1.16403099 -0.0098568 1.16403099 -0.0098568 2.35157776 -0.01991272 C4.92172343 -0.0396332 7.4918106 -0.05130782 10.06201172 -0.0612793 C11.38149118 -0.06739259 11.38149118 -0.06739259 12.7276268 -0.07362938 C17.38693761 -0.09448851 22.04621901 -0.1087888 26.70556641 -0.11816406 C31.50381718 -0.1292057 36.30160129 -0.16357993 41.09968758 -0.20333576 C44.80075911 -0.22956547 48.50172075 -0.2378617 52.20287704 -0.24144554 C53.97060153 -0.24629802 55.73832155 -0.25787362 57.50595474 -0.27648354 C69.27787093 -0.39267924 78.72975518 0.11317868 87.79638672 8.3996582 C93.7338114 15.11987768 95.51006402 21.88501897 95.54370117 30.63256836 C95.55027237 31.37786804 95.55684357 32.12316772 95.56361389 32.89105225 C95.58329545 35.35355746 95.59500016 37.81600172 95.60498047 40.27856445 C95.609056 41.12295452 95.61313152 41.96734459 95.61733055 42.83732224 C95.63817291 47.30975854 95.65248057 51.78216435 95.66186523 56.25463867 C95.67290471 60.8543538 95.70728118 65.45358186 95.74703693 70.05312538 C95.77329582 73.60668787 95.78156542 77.16013612 95.78514671 80.71378708 C95.7899915 82.4081182 95.80154478 84.10244494 95.82018471 85.79668045 C95.93729129 97.14963093 95.58225767 107.90487824 87.27697754 116.58929443 C77.33747224 124.85040861 67.13991933 125.07357651 54.89794922 124.97387695 C53.12780276 124.97792964 51.35765958 124.9837618 49.58752441 124.99127197 C45.89591358 125.00006662 42.20517987 124.98742831 38.51367188 124.95922852 C33.81300264 124.92504405 29.11438951 124.944755 24.41379547 124.9806633 C20.76394529 125.00248232 17.11457201 124.99538188 13.46470642 124.97989655 C11.73298389 124.97593183 10.00121615 124.98067101 8.26954651 124.99477386 C-3.09560804 125.06705012 -12.38903669 124.19799505 -21.5435791 116.58929443 C-30.42406096 107.30341854 -30.2318698 95.52449149 -30.16455078 83.48950195 C-30.16725111 81.77896912 -30.17113802 80.06843779 -30.17614746 78.35791016 C-30.1820171 74.7873664 -30.17356205 71.21722517 -30.15478516 67.64672852 C-30.13199689 63.09416147 -30.14513369 58.54253801 -30.16907501 53.99000549 C-30.18360202 50.46212795 -30.17889558 46.93447024 -30.16856384 43.40658569 C-30.16591557 41.72903326 -30.16909862 40.05146017 -30.17848206 38.37393188 C-30.22878492 26.85638615 -29.63500447 16.58269879 -21.41455078 7.7121582 C-14.96466441 2.15337456 -8.37388552 0.03074 0 0 Z " fill="#F8F8F8" transform="translate(31.63330078125,1.822998046875)"/>
<path d="M0 0 C41.25 0 82.5 0 125 0 C125 45.95327498 125 45.95327498 116.91027832 54.41229248 C106.97077302 62.67340666 96.77322011 62.89657456 84.53125 62.796875 C82.76110354 62.80092769 80.99096036 62.80675984 79.2208252 62.81427002 C75.52921437 62.82306467 71.83848065 62.81042636 68.14697266 62.78222656 C63.44630342 62.7480421 58.74769029 62.76775305 54.04709625 62.80366135 C50.39724607 62.82548037 46.74787279 62.81837993 43.0980072 62.80289459 C41.36628467 62.79892987 39.63451693 62.80366906 37.90284729 62.81777191 C26.53769274 62.89004816 17.24426409 62.02099309 8.08972168 54.41229248 C-5.679919 40.01406765 0 17.44545429 0 0 Z " fill="#060606" transform="translate(2,64)"/>
<path d="M0 0 C41.25 0 82.5 0 125 0 C125 6.93 125 13.86 125 21 C83.75 21 42.5 21 0 21 C0 14.07 0 7.14 0 0 Z " fill="#FFFFFF" transform="translate(2,64)"/>
<path d="M0 0 C41.25 0 82.5 0 125 0 C125 6.93 125 13.86 125 21 C83.75 21 42.5 21 0 21 C0 14.07 0 7.14 0 0 Z " fill="#030303" transform="translate(2,43)"/>
<path d="M0 0 C1.16403099 -0.0098568 1.16403099 -0.0098568 2.35157776 -0.01991272 C4.92172343 -0.0396332 7.4918106 -0.05130782 10.06201172 -0.0612793 C11.38149118 -0.06739259 11.38149118 -0.06739259 12.7276268 -0.07362938 C17.38693761 -0.09448851 22.04621901 -0.1087888 26.70556641 -0.11816406 C31.50381718 -0.1292057 36.30160129 -0.16357993 41.09968758 -0.20333576 C44.80075911 -0.22956547 48.50172075 -0.2378617 52.20287704 -0.24144554 C53.97060153 -0.24629802 55.73832155 -0.25787362 57.50595474 -0.27648354 C69.40946654 -0.39397817 78.71168804 0.16454406 87.85888672 8.5246582 C90.53481812 11.45709081 93.36669922 15.08399945 93.36669922 19.17700195 C53.43669922 19.17700195 13.50669922 19.17700195 -27.63330078 19.17700195 C-24.71046822 10.40850425 -20.81492211 6.36327077 -12.68408203 2.12231445 C-8.39762552 0.14646212 -4.62875873 0.01699188 0 0 Z " fill="#000000" transform="translate(31.63330078125,1.822998046875)"/>
<path d="M0 0 C39.93 0 79.86 0 121 0 C118.3399875 7.98003751 115.29466353 12.02510914 107.92773438 16.16894531 C99.63562506 20.1707948 91.54326031 19.87026951 82.53125 19.796875 C80.76110354 19.80092769 78.99096036 19.80675984 77.2208252 19.81427002 C73.52921437 19.82306467 69.83848065 19.81042636 66.14697266 19.78222656 C61.44630342 19.7480421 56.74769029 19.76775305 52.04709625 19.80366135 C48.39724607 19.82548037 44.74787279 19.81837993 41.0980072 19.80289459 C39.36628467 19.79892987 37.63451693 19.80366906 35.90284729 19.81777191 C24.57452057 19.88981396 14.82808674 19.15992275 5.9510498 11.15155029 C2.4814819 7.51577312 1.6876698 5.06300939 0 0 Z " fill="#FFFFFF" transform="translate(4,107)"/>
</svg>
