<?xml version="1.0" encoding="UTF-8"?>
<svg xmlns="http://www.w3.org/2000/svg" width="128" height="128" viewBox="0 0 400 400">
    <path d="m200 16.51-42.785 74.336c10.925-3.2214 22.357-5.2343 34.143-5.9004l8.6426-15.018 112.46 195.4c2.3742-9.2675 3.6387-18.991 3.6387-29.021 0-7.364-.6922-14.556-1.9922-21.531l-114.11-198.27zm0 72.605c-81.134 0-147.19 66.058-147.19 147.19 0 8.062.6772 15.967 1.9316 23.682l26.943-46.811c10.746-55.606 59.501-97.416 118.32-97.416 7.6862 0 15.19.7441 22.471 2.1094l-16.463-28.604c-1.9954-.0806-3.9931-.1523-6.0078-.1523zm52.51 9.7246 26.863 46.674c25.243 22.072 41.172 54.51 41.172 90.793 0 30.382-11.179 58.064-29.629 79.23h33.02c14.692-22.894 23.256-50.078 23.256-79.23 0-62.64-39.393-116.26-94.682-137.47zm-83.908 25.639c-16.644 4.635-31.753 12.866-44.451 23.816l-114.15 198.33h86.182c-8.4745-7.9798-16.033-16.92-22.502-26.646H56.083l112.52-195.5zm-10.902 95.17v33.316h4.9746v-6.9766h74.654v6.9766h4.9727v-33.316h-4.9727v6.9746h-74.654v-6.9746zm189.56 52.715c-2.7945 11.363-6.8755 22.229-12.078 32.436l8.7363 15.18h-224.51c12.417 11.961 27.503 21.158 44.309 26.646h226.28l-42.74-74.262zm-260.98 4.0527-16.42 28.527c24.721 46.663 73.78 78.555 130.14 78.555 34.783 0 66.774-12.167 91.998-32.432h-54.967c-11.663 3.7436-24.1 5.7852-37.031 5.7852-52.656 0-97.243-33.516-113.72-80.436z" />
</svg>